# xmcd
#
# Track frame offsets:
#	150
#	27871
#	43969
#	63212
#	71997
#	103450
#	131624
#	138934
#	159973
#	183752
#	195523
#	225890
#	234274
#	257306
#	261578
#	281791
#	288541
#
# Disc length: 4268 seconds
#
# Revision: 0
# Processed by: cddbd v1.4PL0 Copyright (c) Steve Scherf et al.
# Submitted via: audiograbber 1.82.02
#
DISCID=f510aa11
DTITLE=Steve Tallis - Zozo
DYEAR=1900
DGENRE=
TTITLE0=Crow Magick
TTITLE1=All God's Children
TTITLE2=Bury My Body
TTITLE3=Silence Is The Most Powerful Cry
TTITLE4=Cut Your Mouth Out Mama
TTITLE5=Paradise
TTITLE6=Midnight The Cloud Of Darkness
TTITLE7=Boko (Sorcerer)
TTITLE8=Abobo (There Is No Evil)
TTITLE9=Love Is The Road That Will Walks
TTITLE10=Mama Lola
TTITLE11=Big Boat Up The River
TTITLE12=Jealousy (The Ripoff Man)
TTITLE13=When My Blood Will Come
TTITLE14=I Am Your Dream
TTITLE15=He Is Coming
TTITLE16=The Spirits Are Back
EXTD=
EXTT0=
EXTT1=
EXTT2=
EXTT3=
EXTT4=
EXTT5=
EXTT6=
EXTT7=
EXTT8=
EXTT9=
EXTT10=
EXTT11=
EXTT12=
EXTT13=
EXTT14=
EXTT15=
EXTT16=
PLAYORDER=
